<svg width="26" height="23" viewBox="0 0 26 23" fill="none" xmlns="http://www.w3.org/2000/svg">
<g filter="url(#filter0_d_938_3413)">
<path d="M20.4948 4.16667C19.5698 3.875 18.5531 3.75 17.5781 3.75C15.9531 3.75 14.2031 4.08333 12.9948 5C11.7865 4.08333 10.0365 3.75 8.41146 3.75C6.78646 3.75 5.03646 4.08333 3.82812 5V17.2083C3.82812 17.4167 4.03646 17.625 4.24479 17.625C4.32812 17.625 4.36979 17.5833 4.45312 17.5833C5.57813 17.0417 7.20313 16.6667 8.41146 16.6667C10.0365 16.6667 11.7865 17 12.9948 17.9167C14.1198 17.2083 16.1615 16.6667 17.5781 16.6667C18.9531 16.6667 20.3698 16.9167 21.5365 17.5417C21.6198 17.5833 21.6615 17.5833 21.7448 17.5833C21.9531 17.5833 22.1615 17.375 22.1615 17.1667V5C21.6615 4.625 21.1198 4.375 20.4948 4.16667ZM20.4948 15.4167C19.5781 15.125 18.5781 15 17.5781 15C16.1615 15 14.1198 15.5417 12.9948 16.25V6.66667C14.1198 5.95833 16.1615 5.41667 17.5781 5.41667C18.5781 5.41667 19.5781 5.54167 20.4948 5.83333V15.4167Z" fill="white"/>
<path d="M17.5781 8.75C18.3115 8.75 19.0198 8.825 19.6615 8.96667V7.7C19.0031 7.575 18.2948 7.5 17.5781 7.5C16.1615 7.5 14.8781 7.74167 13.8281 8.19167V9.575C14.7698 9.04167 16.0781 8.75 17.5781 8.75Z" fill="white"/>
<path d="M13.8281 10.4083V11.7917C14.7698 11.2583 16.0781 10.9667 17.5781 10.9667C18.3115 10.9667 19.0198 11.0417 19.6615 11.1833V9.91667C19.0031 9.79167 18.2948 9.71667 17.5781 9.71667C16.1615 9.71667 14.8781 9.96667 13.8281 10.4083Z" fill="white"/>
<path d="M17.5781 11.9417C16.1615 11.9417 14.8781 12.1833 13.8281 12.6333V14.0167C14.7698 13.4833 16.0781 13.1917 17.5781 13.1917C18.3115 13.1917 19.0198 13.2667 19.6615 13.4083V12.1417C19.0031 12.0083 18.2948 11.9417 17.5781 11.9417Z" fill="white"/>
</g>
<defs>
<filter id="filter0_d_938_3413" x="0.828125" y="2.75" width="24.3359" height="20.1667" filterUnits="userSpaceOnUse" color-interpolation-filters="sRGB">
<feFlood flood-opacity="0" result="BackgroundImageFix"/>
<feColorMatrix in="SourceAlpha" type="matrix" values="0 0 0 0 0 0 0 0 0 0 0 0 0 0 0 0 0 0 127 0" result="hardAlpha"/>
<feOffset dy="2"/>
<feGaussianBlur stdDeviation="1.5"/>
<feComposite in2="hardAlpha" operator="out"/>
<feColorMatrix type="matrix" values="0 0 0 0 0 0 0 0 0 0 0 0 0 0 0 0 0 0 0.25 0"/>
<feBlend mode="normal" in2="BackgroundImageFix" result="effect1_dropShadow_938_3413"/>
<feBlend mode="normal" in="SourceGraphic" in2="effect1_dropShadow_938_3413" result="shape"/>
</filter>
</defs>
</svg>
