<svg width="20" height="23" viewBox="0 0 20 23" fill="none" xmlns="http://www.w3.org/2000/svg">
<g filter="url(#filter0_d_938_3394)">
<rect x="4.67188" y="10" width="3" height="8" rx="0.3" fill="white"/>
<rect x="12.6719" y="10" width="3" height="8" rx="0.3" fill="white"/>
<path d="M8.16667 5.98694C7.33492 7.83341 6.82374 6.63794 6.67212 5.86858C5.88443 6.28285 5.81945 6.93385 6.01439 7.46648C4.71478 6.28285 7.23333 5.57267 7.71182 3.97477C8.1017 2.67277 5.89236 1.66669 5.89236 1.66669C6.82808 2.47156 6.36889 3.50132 6.02233 3.91559C6.59415 3.67886 6.73711 3.06732 6.73711 2.79114C6.84541 3.10677 6.86707 3.83273 6.08731 4.2115L6.08729 4.2115C5.11259 4.68495 4.13788 5.15841 4.00792 6.40121C3.87796 7.64403 5.37251 8.53175 6.67212 8.29503C7.7118 8.10564 8.16667 7.05221 8.16667 5.98694Z" fill="white"/>
<path d="M16.3307 5.98694C15.499 7.83341 14.9878 6.63794 14.8362 5.86858C14.0485 6.28285 13.9835 6.93385 14.1785 7.46648C12.8788 6.28285 15.3974 5.57267 15.8759 3.97477C16.2658 2.67277 14.0564 1.66669 14.0564 1.66669C14.9921 2.47156 14.533 3.50132 14.1864 3.91559C14.7582 3.67886 14.9012 3.06732 14.9012 2.79114C15.0095 3.10677 15.0311 3.83273 14.2514 4.2115L14.2514 4.2115C13.2767 4.68495 12.3019 5.15841 12.172 6.40121C12.042 7.64403 13.5366 8.53175 14.8362 8.29503C15.8759 8.10564 16.3307 7.05221 16.3307 5.98694Z" fill="white"/>
</g>
<defs>
<filter id="filter0_d_938_3394" x="1" y="0.666687" width="18.3281" height="22.3333" filterUnits="userSpaceOnUse" color-interpolation-filters="sRGB">
<feFlood flood-opacity="0" result="BackgroundImageFix"/>
<feColorMatrix in="SourceAlpha" type="matrix" values="0 0 0 0 0 0 0 0 0 0 0 0 0 0 0 0 0 0 127 0" result="hardAlpha"/>
<feOffset dy="2"/>
<feGaussianBlur stdDeviation="1.5"/>
<feComposite in2="hardAlpha" operator="out"/>
<feColorMatrix type="matrix" values="0 0 0 0 0 0 0 0 0 0 0 0 0 0 0 0 0 0 0.25 0"/>
<feBlend mode="normal" in2="BackgroundImageFix" result="effect1_dropShadow_938_3394"/>
<feBlend mode="normal" in="SourceGraphic" in2="effect1_dropShadow_938_3394" result="shape"/>
</filter>
</defs>
</svg>
