<svg width="25" height="25" viewBox="0 0 25 25" fill="none" xmlns="http://www.w3.org/2000/svg">
<mask id="mask0_938_4667" style="mask-type:alpha" maskUnits="userSpaceOnUse" x="0" y="0" width="25" height="25">
<rect x="0.796875" y="0.800049" width="24" height="24" fill="#D9D9D9"/>
</mask>
<g mask="url(#mask0_938_4667)">
<path d="M16.0969 17.5L17.4969 16.1L13.7969 12.4V7.80005H11.7969V13.2L16.0969 17.5ZM12.7969 22.8C11.4135 22.8 10.1135 22.5375 8.89687 22.0125C7.68021 21.4875 6.62188 20.775 5.72187 19.875C4.82187 18.975 4.10938 17.9167 3.58438 16.7C3.05937 15.4834 2.79688 14.1834 2.79688 12.8C2.79688 11.4167 3.05937 10.1167 3.58438 8.90005C4.10938 7.68338 4.82187 6.62505 5.72187 5.72505C6.62188 4.82505 7.68021 4.11255 8.89687 3.58755C10.1135 3.06255 11.4135 2.80005 12.7969 2.80005C14.1802 2.80005 15.4802 3.06255 16.6969 3.58755C17.9135 4.11255 18.9719 4.82505 19.8719 5.72505C20.7719 6.62505 21.4844 7.68338 22.0094 8.90005C22.5344 10.1167 22.7969 11.4167 22.7969 12.8C22.7969 14.1834 22.5344 15.4834 22.0094 16.7C21.4844 17.9167 20.7719 18.975 19.8719 19.875C18.9719 20.775 17.9135 21.4875 16.6969 22.0125C15.4802 22.5375 14.1802 22.8 12.7969 22.8ZM12.7969 20.8C15.0135 20.8 16.901 20.0209 18.4594 18.4625C20.0177 16.9042 20.7969 15.0167 20.7969 12.8C20.7969 10.5834 20.0177 8.69588 18.4594 7.13755C16.901 5.57922 15.0135 4.80005 12.7969 4.80005C10.5802 4.80005 8.69271 5.57922 7.13438 7.13755C5.57604 8.69588 4.79688 10.5834 4.79688 12.8C4.79688 15.0167 5.57604 16.9042 7.13438 18.4625C8.69271 20.0209 10.5802 20.8 12.7969 20.8Z" fill="#031B4D"/>
</g>
</svg>
