<svg width="18" height="18" viewBox="0 0 18 18" fill="none" xmlns="http://www.w3.org/2000/svg">
<path d="M15.8836 15.8868C15.7176 15.8868 15.5599 15.8228 15.4437 15.7109L10.1492 10.6125C9.90859 10.3807 9.90859 9.99715 10.1492 9.7654L16.564 3.58811C16.7217 3.43627 16.9624 3.38033 17.1781 3.43627C17.3939 3.5002 17.5598 3.66802 17.6096 3.8758C17.7673 4.55506 17.8503 5.31424 17.8503 6.19328V10.9881C17.8503 13.2017 17.369 14.6961 16.3234 15.7109C16.2072 15.8228 16.0329 15.8468 15.8836 15.8868ZM11.4686 10.1889L15.8338 14.3924C16.3566 13.6172 16.6055 12.5144 16.6055 10.9881V6.19328C16.6055 5.86564 16.5972 5.56197 16.5723 5.27428L11.4686 10.1889Z" fill="white"/>
<path d="M4.16588 16.9656C4.11609 16.9656 4.07461 16.9576 4.02482 16.9496C1.27799 16.3423 0 14.4483 0 10.9881V6.19328C0 1.85399 1.92527 0 6.4314 0H11.4105C15.0038 0 16.9706 1.23067 17.6013 3.8758C17.6511 4.07559 17.5847 4.29135 17.4353 4.43519L4.6057 16.7898C4.48952 16.9017 4.33185 16.9656 4.16588 16.9656ZM6.4314 1.1987C2.60575 1.1987 1.24479 2.50928 1.24479 6.19328V10.9881C1.24479 13.7611 2.04146 15.1516 3.97503 15.703L16.2984 3.83584C15.7341 1.97386 14.2819 1.20668 11.4022 1.20668H6.4314V1.1987Z" fill="white"/>
<path d="M11.399 17.1816H6.41985C5.50701 17.1816 4.72695 17.1096 4.01327 16.9498C3.78921 16.9019 3.61493 16.742 3.55684 16.5343C3.49045 16.3265 3.55684 16.1027 3.71451 15.9429L10.1293 9.76561C10.37 9.53386 10.7683 9.53386 11.009 9.76561L16.3035 14.8641C16.4197 14.976 16.4861 15.1278 16.4861 15.2876C16.4861 15.4474 16.4197 15.5993 16.3035 15.7112C15.2496 16.7181 13.6977 17.1816 11.399 17.1816ZM5.46553 15.9509C5.76427 15.9749 6.07961 15.9829 6.41985 15.9829H11.399C12.9924 15.9829 14.1293 15.7431 14.9342 15.2397L10.5692 11.0362L5.46553 15.9509Z" fill="white"/>
<path d="M6.52958 9.63761C6.00677 9.63761 5.48395 9.45381 5.06902 9.07821C3.74954 7.87152 3.21846 6.545 3.53381 5.25041C3.84915 3.92385 5.05243 3.02881 6.52958 3.02881C8.00676 3.02881 9.21005 3.92385 9.5254 5.25041C9.83245 6.55299 9.30134 7.87152 7.98186 9.07821C7.57523 9.44582 7.05239 9.63761 6.52958 9.63761ZM4.74539 5.51411C4.47984 6.60093 5.2433 7.57592 5.93208 8.20724C6.27232 8.51882 6.79514 8.51882 7.12708 8.20724C7.80759 7.58392 8.57106 6.60892 8.31381 5.51411C8.08974 4.56314 7.21006 4.21952 6.52958 4.21952C5.84909 4.21952 4.97775 4.56314 4.74539 5.51411Z" fill="white"/>
<path d="M6.54861 6.58459C6.09219 6.58459 5.71875 6.22498 5.71875 5.78546C5.71875 5.34594 6.08389 4.98633 6.54861 4.98633H6.55692C7.01334 4.98633 7.38677 5.34594 7.38677 5.78546C7.38677 6.22498 7.00503 6.58459 6.54861 6.58459Z" fill="white"/>
</svg>
