<svg width="23" height="22" viewBox="0 0 23 22" fill="none" xmlns="http://www.w3.org/2000/svg">
<path d="M16.454 0H6.99072C2.88019 0 0.429688 2.34949 0.429688 6.29057V15.3529C0.429688 19.3048 2.88019 21.6543 6.99072 21.6543H16.4427C20.5532 21.6543 23.0037 19.3048 23.0037 15.3637V6.29057C23.015 2.34949 20.5645 0 16.454 0ZM11.7223 15.0281C9.30571 15.0281 7.34079 13.1442 7.34079 10.8271C7.34079 8.51014 9.30571 6.62621 11.7223 6.62621C14.139 6.62621 16.1039 8.51014 16.1039 10.8271C16.1039 13.1442 14.139 15.0281 11.7223 15.0281ZM18.4076 5.28365C18.3511 5.41357 18.2721 5.53267 18.1704 5.64094C18.0575 5.73839 17.9333 5.81418 17.7978 5.86831C17.6623 5.92245 17.5155 5.95493 17.3687 5.95493C17.0638 5.95493 16.7815 5.84666 16.5669 5.64094C16.4653 5.53267 16.3862 5.41357 16.3297 5.28365C16.2733 5.15372 16.2394 5.01297 16.2394 4.87222C16.2394 4.73146 16.2733 4.59071 16.3297 4.46078C16.3862 4.32003 16.4653 4.21176 16.5669 4.10349C16.8266 3.85446 17.2219 3.73537 17.5832 3.81116C17.6623 3.82198 17.73 3.84364 17.7978 3.87612C17.8655 3.89777 17.9333 3.93025 18.0011 3.97356C18.0575 4.00604 18.114 4.06018 18.1704 4.10349C18.2721 4.21176 18.3511 4.32003 18.4076 4.46078C18.4641 4.59071 18.4979 4.73146 18.4979 4.87222C18.4979 5.01297 18.4641 5.15372 18.4076 5.28365Z" fill="white"/>
</svg>
