<svg width="1475" height="1476" viewBox="0 0 1475 1476" fill="none" xmlns="http://www.w3.org/2000/svg">
<path fill-rule="evenodd" clip-rule="evenodd" d="M379 0.477051C169.684 0.477051 0 170.161 0 379.477V1096.48C0 1305.79 169.684 1475.48 379 1475.48H1096C1305.32 1475.48 1475 1305.79 1475 1096.48V379.477C1475 170.161 1305.32 0.477051 1096 0.477051H379ZM648.822 696.753L339.95 1138H578.005L780.495 848.726L1031.11 1138H1101.06L811.75 804.067L1138 338H899.946L680.077 652.093L407.953 338H338L648.822 696.753ZM552.185 1082.95H442.822L925.75 393.062H1035.11L552.185 1082.95Z" fill="#FCFCFC"/>
</svg>
