<svg width="25" height="25" viewBox="0 0 25 25" fill="none" xmlns="http://www.w3.org/2000/svg">
<mask id="mask0_938_4793" style="mask-type:alpha" maskUnits="userSpaceOnUse" x="0" y="0" width="25" height="25">
<rect x="0.796875" y="0.800049" width="24" height="24" fill="#D9D9D9"/>
</mask>
<g mask="url(#mask0_938_4793)">
<path d="M5.79688 19.8H7.19688L15.8219 11.175L14.4219 9.77505L5.79688 18.4V19.8ZM20.0969 9.72505L15.8469 5.52505L17.2469 4.12505C17.6302 3.74172 18.101 3.55005 18.6594 3.55005C19.2177 3.55005 19.6885 3.74172 20.0719 4.12505L21.4719 5.52505C21.8552 5.90838 22.0552 6.37088 22.0719 6.91255C22.0885 7.45422 21.9052 7.91672 21.5219 8.30005L20.0969 9.72505ZM18.6469 11.2L8.04688 21.8H3.79688V17.55L14.3969 6.95005L18.6469 11.2Z" fill="#031B4D"/>
</g>
</svg>
