<svg width="21" height="22" viewBox="0 0 21 22" fill="none" xmlns="http://www.w3.org/2000/svg">
<path d="M14.9297 5.08789C16.7969 6.49759 18.0853 8.7389 18.3467 11.325" stroke="white" stroke-width="2" stroke-linecap="round" stroke-linejoin="round"/>
<path d="M2.32812 11.3749C2.57086 8.79885 3.84057 6.55753 5.68911 5.1377" stroke="white" stroke-width="2" stroke-linecap="round" stroke-linejoin="round"/>
<path d="M6.71875 20.0674C7.80173 20.6657 9.03409 21.0004 10.3318 21.0004C11.5828 21.0004 12.7592 20.6962 13.8142 20.1384" stroke="white" stroke-width="2" stroke-linecap="round" stroke-linejoin="round"/>
<path d="M10.3454 6.63879C11.7789 6.63879 12.9408 5.37651 12.9408 3.81939C12.9408 2.26229 11.7789 1 10.3454 1C8.91203 1 7.75 2.26229 7.75 3.81939C7.75 5.37651 8.91203 6.63879 10.3454 6.63879Z" stroke="white" stroke-width="2" stroke-linecap="round" stroke-linejoin="round"/>
<path d="M3.59542 19.0323C5.02884 19.0323 6.19085 17.77 6.19085 16.2129C6.19085 14.6558 5.02884 13.3936 3.59542 13.3936C2.16201 13.3936 1 14.6558 1 16.2129C1 17.77 2.16201 19.0323 3.59542 19.0323Z" stroke="white" stroke-width="2" stroke-linecap="round" stroke-linejoin="round"/>
<path d="M16.9704 19.0323C18.4039 19.0323 19.5659 17.77 19.5659 16.2129C19.5659 14.6558 18.4039 13.3936 16.9704 13.3936C15.5371 13.3936 14.375 14.6558 14.375 16.2129C14.375 17.77 15.5371 19.0323 16.9704 19.0323Z" stroke="white" stroke-width="2" stroke-linecap="round" stroke-linejoin="round"/>
</svg>
