<svg width="26" height="26" viewBox="0 0 26 26" fill="none" xmlns="http://www.w3.org/2000/svg">
<g filter="url(#filter0_d_938_3402)">
<path d="M19.0859 7.77083L18.1901 5.6875L16.0234 4.72917L18.1901 3.79167L19.0859 1.8125L19.9818 3.79167L22.1484 4.72917L19.9818 5.6875L19.0859 7.77083ZM19.0859 20.1667L18.1901 18.1667L16.0234 17.2292L18.1901 16.2917L19.0859 14.1875L19.9818 16.2917L22.1484 17.2292L19.9818 18.1667L19.0859 20.1667ZM9.9401 16.9583L8.02344 12.8542L3.83594 10.9792L8.02344 9.10417L9.9401 5.02083L11.8776 9.10417L16.0443 10.9792L11.8776 12.8542L9.9401 16.9583ZM9.9401 13.875L10.9401 11.875L12.9818 10.9792L10.9401 10.0833L9.9401 8.08333L8.96094 10.0833L6.89844 10.9792L8.96094 11.875L9.9401 13.875Z" fill="white"/>
</g>
<defs>
<filter id="filter0_d_938_3402" x="0.835938" y="0.8125" width="24.3125" height="24.3542" filterUnits="userSpaceOnUse" color-interpolation-filters="sRGB">
<feFlood flood-opacity="0" result="BackgroundImageFix"/>
<feColorMatrix in="SourceAlpha" type="matrix" values="0 0 0 0 0 0 0 0 0 0 0 0 0 0 0 0 0 0 127 0" result="hardAlpha"/>
<feOffset dy="2"/>
<feGaussianBlur stdDeviation="1.5"/>
<feComposite in2="hardAlpha" operator="out"/>
<feColorMatrix type="matrix" values="0 0 0 0 0 0 0 0 0 0 0 0 0 0 0 0 0 0 0.25 0"/>
<feBlend mode="normal" in2="BackgroundImageFix" result="effect1_dropShadow_938_3402"/>
<feBlend mode="normal" in="SourceGraphic" in2="effect1_dropShadow_938_3402" result="shape"/>
</filter>
</defs>
</svg>
