<svg width="25" height="25" viewBox="0 0 25 25" fill="none" xmlns="http://www.w3.org/2000/svg">
<mask id="mask0_938_4729" style="mask-type:alpha" maskUnits="userSpaceOnUse" x="0" y="0" width="25" height="25">
<rect x="0.796875" y="0.800049" width="24" height="24" fill="#D9D9D9"/>
</mask>
<g mask="url(#mask0_938_4729)">
<path d="M1.79688 21.8V7.80005C1.79688 6.96672 2.08854 6.25838 2.67188 5.67505C3.25521 5.09172 3.96354 4.80005 4.79688 4.80005C5.63021 4.80005 6.33854 5.09172 6.92188 5.67505C7.50521 6.25838 7.79688 6.96672 7.79688 7.80005V8.10005L12.7969 3.80005L17.7969 8.10005V7.80005C17.7969 6.96672 18.0885 6.25838 18.6719 5.67505C19.2552 5.09172 19.9635 4.80005 20.7969 4.80005C21.6302 4.80005 22.3385 5.09172 22.9219 5.67505C23.5052 6.25838 23.7969 6.96672 23.7969 7.80005V21.8H13.7969V16.8C13.7969 16.5167 13.701 16.2792 13.5094 16.0875C13.3177 15.8959 13.0802 15.8 12.7969 15.8C12.5135 15.8 12.276 15.8959 12.0844 16.0875C11.8927 16.2792 11.7969 16.5167 11.7969 16.8V21.8H1.79688ZM19.7969 8.80005H21.7969V7.80005C21.7969 7.51672 21.701 7.27922 21.5094 7.08755C21.3177 6.89588 21.0802 6.80005 20.7969 6.80005C20.5135 6.80005 20.276 6.89588 20.0844 7.08755C19.8927 7.27922 19.7969 7.51672 19.7969 7.80005V8.80005ZM3.79688 8.80005H5.79688V7.80005C5.79688 7.51672 5.70104 7.27922 5.50938 7.08755C5.31771 6.89588 5.08021 6.80005 4.79688 6.80005C4.51354 6.80005 4.27604 6.89588 4.08438 7.08755C3.89271 7.27922 3.79688 7.51672 3.79688 7.80005V8.80005ZM3.79688 19.8H5.79688V10.8H3.79688V19.8ZM7.79688 19.8H9.79688V16.8C9.79688 15.9667 10.0885 15.2584 10.6719 14.675C11.2552 14.0917 11.9635 13.8 12.7969 13.8C13.6302 13.8 14.3385 14.0917 14.9219 14.675C15.5052 15.2584 15.7969 15.9667 15.7969 16.8V19.8H17.7969V10.725L12.7969 6.42505L7.79688 10.725V19.8ZM19.7969 19.8H21.7969V10.8H19.7969V19.8ZM12.7969 12.3C12.3802 12.3 12.026 12.1542 11.7344 11.8625C11.4427 11.5709 11.2969 11.2167 11.2969 10.8C11.2969 10.3834 11.4427 10.0292 11.7344 9.73755C12.026 9.44588 12.3802 9.30005 12.7969 9.30005C13.2135 9.30005 13.5677 9.44588 13.8594 9.73755C14.151 10.0292 14.2969 10.3834 14.2969 10.8C14.2969 11.2167 14.151 11.5709 13.8594 11.8625C13.5677 12.1542 13.2135 12.3 12.7969 12.3Z" fill="#031B4D"/>
</g>
</svg>
