<svg width="25" height="25" viewBox="0 0 25 25" fill="none" xmlns="http://www.w3.org/2000/svg">
<mask id="mask0_938_4559" style="mask-type:alpha" maskUnits="userSpaceOnUse" x="0" y="0" width="25" height="25">
<rect x="0.796875" y="0.800049" width="24" height="24" fill="#D9D9D9"/>
</mask>
<g mask="url(#mask0_938_4559)">
<path d="M5.04688 19.1001C4.41354 18.3667 3.90521 17.5501 3.52188 16.6501C3.13854 15.7501 2.89688 14.8001 2.79688 13.8001H4.84687C4.94687 14.5334 5.13021 15.2292 5.39688 15.8876C5.66354 16.5459 6.01354 17.1501 6.44688 17.7001L5.04688 19.1001ZM2.79688 11.8001C2.93021 10.8001 3.18021 9.85005 3.54688 8.95005C3.91354 8.05005 4.41354 7.23339 5.04688 6.50005L6.44688 7.90005C6.01354 8.45005 5.66354 9.05422 5.39688 9.71255C5.13021 10.3709 4.94687 11.0667 4.84687 11.8001H2.79688ZM11.7469 22.7501C10.7469 22.6501 9.80104 22.4084 8.90938 22.0251C8.01771 21.6417 7.19688 21.1501 6.44688 20.5501L7.84688 19.1001C8.43021 19.5334 9.04271 19.8917 9.68438 20.1751C10.326 20.4584 11.0135 20.6501 11.7469 20.7501V22.7501ZM7.89687 6.50005L6.44688 5.05005C7.19688 4.45005 8.01771 3.95839 8.90938 3.57505C9.80104 3.19172 10.7635 2.95005 11.7969 2.85005V4.85005C11.0469 4.95005 10.3469 5.14172 9.69688 5.42505C9.04688 5.70839 8.44688 6.06672 7.89687 6.50005ZM10.2969 17.3001V8.30005L17.2969 12.8001L10.2969 17.3001ZM13.7969 22.7501V20.7501C15.8135 20.4667 17.4844 19.5751 18.8094 18.0751C20.1344 16.5751 20.7969 14.8167 20.7969 12.8001C20.7969 10.7834 20.1344 9.02505 18.8094 7.52505C17.4844 6.02505 15.8135 5.13339 13.7969 4.85005V2.85005C16.3635 3.13339 18.5052 4.21672 20.2219 6.10005C21.9385 7.98339 22.7969 10.2167 22.7969 12.8001C22.7969 15.3834 21.9385 17.6167 20.2219 19.5001C18.5052 21.3834 16.3635 22.4667 13.7969 22.7501Z" fill="#031B4D"/>
</g>
</svg>
