<svg width="59" height="82" viewBox="0 0 59 82" fill="none" xmlns="http://www.w3.org/2000/svg">
<path d="M43.5119 20.3414C43.0645 24.8635 42.7699 27.7398 34.107 38.5707C27.8107 46.443 29.5582 53.4858 29.5582 53.4858C29.5582 53.4858 16.2631 45.0759 22.9721 35.2397C34.388 18.4834 39.7095 16.0455 32.8468 5.46857L29.3255 0.580078C21.4222 20.4726 9.12812 28.9376 3.30162 37.3602C1.48424 40.2545 0.69127 43.6395 1.04207 47.0057C1.39286 50.372 2.86844 53.5373 5.24672 56.0253L29.5011 81.4201L53.7687 56.0253C56.1446 53.537 57.6187 50.3725 57.9695 47.0075C58.3202 43.6425 57.5287 40.2587 55.7137 37.3644L43.5119 20.3414Z" fill="url(#paint0_radial_1171_312)"/>
<path d="M48.5558 55.1787L29.5308 75.0924L10.5057 55.1787H8.11719L29.5308 77.5896L50.9444 55.1787H48.5558Z" fill="#17181B"/>
<path d="M43.2944 55.1787L29.5251 69.5902L15.7557 55.1787H13.3672L29.5251 72.0874L45.6785 55.1787H43.2944Z" fill="#17181B"/>
<path d="M37.6304 55.1787L29.5251 63.6648L21.4154 55.1787H19.0312L29.5251 66.1619L40.0189 55.1787H37.6304Z" fill="#17181B"/>
<defs>
<radialGradient id="paint0_radial_1171_312" cx="0" cy="0" r="1" gradientUnits="userSpaceOnUse" gradientTransform="translate(29.4516 83.1082) rotate(-82.0742) scale(51.258 53.5021)">
<stop stop-color="white"/>
<stop offset="1" stop-color="white"/>
</radialGradient>
</defs>
</svg>
