<svg width="61" height="87" viewBox="0 0 61 87" fill="none" xmlns="http://www.w3.org/2000/svg">
<g clip-path="url(#clip0_4_15)">
<path d="M45.3637 23.1787L43.8172 21.0211L43.5558 23.6629C43.3341 25.9041 43.1599 27.6137 42.0207 30.0926C40.8607 32.6167 38.6839 35.9664 34.3651 41.366L35.1461 41.9906L34.3651 41.366C31.0911 45.4595 29.8896 49.3652 29.5186 52.2737C29.3979 53.2201 29.3653 54.0586 29.3768 54.7615C29.3387 54.7304 29.3001 54.6988 29.2612 54.6667C28.1577 53.756 26.7692 52.4544 25.5899 50.8734C24.408 49.2887 23.4722 47.4715 23.2003 45.5221C22.9324 43.6015 23.2973 41.4809 24.8373 39.2231L24.8376 39.2227C27.0517 35.9728 29.0319 33.2689 30.7476 30.9262C31.2348 30.261 31.7006 29.6249 32.1444 29.0138C34.1356 26.2716 35.7118 23.9937 36.7074 21.8835C37.7185 19.7403 38.1559 17.7205 37.8331 15.502C37.5152 13.3172 36.4736 11.0395 34.7248 8.34419L34.7115 8.32377L34.6973 8.30401L31.176 3.41552L30.1092 1.9345L29.4352 3.63077C25.5345 13.4488 20.5525 20.446 15.8107 26.045C13.9202 28.2773 12.0737 30.2809 10.3373 32.1651C9.88917 32.6515 9.44834 33.1298 9.01598 33.6021C6.92057 35.8909 5.01772 38.0437 3.51828 40.2112L3.50562 40.2295L3.49379 40.2483C1.55879 43.33 0.712297 46.9384 1.08652 50.5293C1.46069 54.1199 3.03414 57.4906 5.56262 60.1359C5.56272 60.136 5.56282 60.1361 5.56291 60.1362L29.817 85.5307L30.54 86.2877L31.2631 85.5309L55.5307 60.1361L55.531 60.1358C58.0571 57.4902 59.629 54.1204 60.0032 50.5311L60.0032 50.5311C60.3773 46.9416 59.5324 43.3346 57.6 40.253L57.5835 40.2269L57.5655 40.2017L45.3637 23.1787Z" fill="url(#paint0_radial_4_15)" stroke="white" stroke-width="2"/>
<path d="M49.5949 58.5986L30.5699 78.5123L11.5448 58.5986H9.15625L30.5699 81.0095L51.9835 58.5986H49.5949Z" fill="#25C52B"/>
<path d="M44.3335 58.5986L30.5642 73.0101L16.7948 58.5986H14.4063L30.5642 75.5073L46.7176 58.5986H44.3335Z" fill="white"/>
<path d="M38.6695 58.5986L30.5642 67.0847L22.4545 58.5986H20.0703L30.5642 69.5818L41.058 58.5986H38.6695Z" fill="#CD3F2C"/>
</g>
<defs>
<radialGradient id="paint0_radial_4_15" cx="0" cy="0" r="1" gradientUnits="userSpaceOnUse" gradientTransform="translate(30.4907 199.92) rotate(-89.8622) scale(228.001 237.983)">
<stop offset="0.578918" stop-color="#2A3327"/>
<stop offset="0.698382" stop-color="#348337"/>
<stop offset="1" stop-color="#438C20"/>
</radialGradient>
<clipPath id="clip0_4_15">
<rect width="61" height="87" fill="white"/>
</clipPath>
</defs>
</svg>
