<svg width="113" height="117" viewBox="0 0 113 117" fill="none" xmlns="http://www.w3.org/2000/svg">
<g filter="url(#filter0_di_4_9)">
<path d="M71.3247 37.7587L69.7782 35.6011L69.5168 38.2429C69.295 40.4841 69.1208 42.1937 67.9816 44.6725C66.8216 47.1966 64.6448 50.5463 60.326 55.9459C57.052 60.0395 55.8506 63.9452 55.4795 66.8537C55.3588 67.8 55.3262 68.6386 55.3377 69.3415C55.2996 69.3104 55.261 69.2788 55.2221 69.2467C54.1186 68.336 52.7301 67.0344 51.5508 65.4534C50.369 63.8687 49.4332 62.0515 49.1612 60.102C48.8933 58.1814 49.2582 56.0609 50.7982 53.8031C53.0123 50.5532 54.9929 47.8488 56.7086 45.5061C57.1957 44.8409 57.6615 44.2049 58.1053 43.5937C60.0965 40.8516 61.6727 38.5737 62.6683 36.4634C63.6795 34.3203 64.1169 32.3005 63.794 30.082C63.4761 27.8972 62.4345 25.6194 60.6857 22.9241L60.6725 22.9037L60.6582 22.884L57.1369 17.9955L56.0701 16.5145L55.3961 18.2107C51.4954 28.0287 46.5134 35.0259 41.7716 40.625C39.8811 42.8572 38.0347 44.8609 36.2982 46.7451C35.8501 47.2314 35.4093 47.7097 34.9769 48.182C32.8815 50.4708 30.9787 52.6236 29.4792 54.7911L29.4666 54.8094L29.4547 54.8283C27.5197 57.9099 26.6732 61.5183 27.0475 65.1092C27.4216 68.7 28.9952 72.0709 31.5238 74.7162L55.7779 100.111L56.5009 100.868L57.2241 100.111L81.4916 74.7161C84.0177 72.0705 85.59 68.7004 85.9641 65.1111C86.3382 61.5216 85.4933 57.9145 83.561 54.833L83.5445 54.8068L83.5265 54.7817L71.3247 37.7587Z" fill="url(#paint0_radial_4_9)"/>
<path d="M60.326 55.9459C64.6448 50.5463 66.8216 47.1966 67.9816 44.6725C69.1208 42.1937 69.295 40.4841 69.5168 38.2429L69.7782 35.6011L71.3247 37.7587L83.5265 54.7817L83.5445 54.8068L83.561 54.833C85.4933 57.9145 86.3382 61.5216 85.9641 65.1111C85.59 68.7004 84.0177 72.0705 81.4916 74.7161L57.2241 100.111L56.5009 100.868L55.7779 100.111L31.5238 74.7162C28.9952 72.0709 27.4216 68.7 27.0475 65.1092C26.6732 61.5183 27.5197 57.9099 29.4547 54.8283L29.4666 54.8094L29.4792 54.7911C30.9787 52.6236 32.8815 50.4708 34.9769 48.182C35.4093 47.7097 35.8501 47.2314 36.2982 46.7451C38.0347 44.8609 39.8811 42.8572 41.7716 40.625C46.5134 35.0259 51.4954 28.0287 55.3961 18.2107L56.0701 16.5145L57.1369 17.9955L60.6582 22.884L60.6725 22.9037L60.6857 22.9241C62.4345 25.6194 63.4761 27.8972 63.794 30.082C64.1169 32.3005 63.6795 34.3203 62.6683 36.4634C61.6727 38.5737 60.0965 40.8516 58.1053 43.5937C57.6615 44.2049 57.1957 44.8409 56.7086 45.5061C54.9929 47.8488 53.0123 50.5532 50.7982 53.8031C49.2582 56.0609 48.8933 58.1814 49.1612 60.102C49.4332 62.0515 50.369 63.8687 51.5508 65.4534C52.7301 67.0344 54.1186 68.336 55.2221 69.2467C55.261 69.2788 55.2996 69.3104 55.3377 69.3415C55.3262 68.6386 55.3588 67.8 55.4795 66.8537C55.8506 63.9452 57.052 60.0395 60.326 55.9459ZM60.326 55.9459L61.107 56.5705" stroke="white" stroke-width="2"/>
<path d="M75.5558 72.9287H75.4489L75.375 73.006L56.5308 92.7305L37.6865 73.006L37.6126 72.9287H37.5057H35.1172H34.5326L34.9365 73.3514L56.3501 95.7623L56.5308 95.9515L56.7116 95.7623L78.1252 73.3514L78.5291 72.9287H77.9444H75.5558Z" fill="#CD3F2C" stroke="white" stroke-width="0.5"/>
<path d="M70.2944 73.1787L56.5251 87.5902L42.7557 73.1787H40.3672L56.5251 90.0874L72.6785 73.1787H70.2944Z" fill="white"/>
<path d="M64.6304 72.9287H64.5235L64.4496 73.006L56.5251 81.3029L48.5961 73.006L48.5223 72.9287H48.4154H46.0312H45.4466L45.8504 73.3514L56.3443 84.3346L56.5251 84.5238L56.7059 84.3346L67.1997 73.3514L67.6035 72.9287H67.0189H64.6304Z" fill="#25C52B" stroke="white" stroke-width="0.5"/>
</g>
<defs>
<filter id="filter0_di_4_9" x="0.960953" y="-21.5509" width="111.09" height="137.867" filterUnits="userSpaceOnUse" color-interpolation-filters="sRGB">
<feFlood flood-opacity="0" result="BackgroundImageFix"/>
<feColorMatrix in="SourceAlpha" type="matrix" values="0 0 0 0 0 0 0 0 0 0 0 0 0 0 0 0 0 0 127 0" result="hardAlpha"/>
<feOffset dy="-11"/>
<feGaussianBlur stdDeviation="12.5"/>
<feComposite in2="hardAlpha" operator="out"/>
<feColorMatrix type="matrix" values="0 0 0 0 0.991182 0 0 0 0 0.390081 0 0 0 0 0.308113 0 0 0 0.23 0"/>
<feBlend mode="normal" in2="BackgroundImageFix" result="effect1_dropShadow_4_9"/>
<feBlend mode="normal" in="SourceGraphic" in2="effect1_dropShadow_4_9" result="shape"/>
<feColorMatrix in="SourceAlpha" type="matrix" values="0 0 0 0 0 0 0 0 0 0 0 0 0 0 0 0 0 0 127 0" result="hardAlpha"/>
<feOffset dy="4"/>
<feGaussianBlur stdDeviation="2"/>
<feComposite in2="hardAlpha" operator="arithmetic" k2="-1" k3="1"/>
<feColorMatrix type="matrix" values="0 0 0 0 0 0 0 0 0 0 0 0 0 0 0 0 0 0 0.25 0"/>
<feBlend mode="normal" in2="shape" result="effect2_innerShadow_4_9"/>
</filter>
<radialGradient id="paint0_radial_4_9" cx="0" cy="0" r="1" gradientUnits="userSpaceOnUse" gradientTransform="translate(56.4516 101.108) rotate(-82.0742) scale(51.258 53.5021)">
<stop stop-color="#FF7A30"/>
<stop offset="1" stop-color="#D22109"/>
</radialGradient>
</defs>
</svg>
