<svg width="83" height="121" viewBox="0 0 83 121" fill="none" xmlns="http://www.w3.org/2000/svg">
<path d="M61.135 29.4537C62.3336 33.8318 60.0688 40.4808 47.6224 56.6239C38.5763 68.3574 41.087 78.8545 41.087 78.8545C41.087 78.8545 21.9853 66.3198 31.6244 51.6592C48.0262 26.6844 55.6719 23.0508 45.8119 7.28616L40.7526 0C29.3976 29.6493 11.7342 42.266 3.36297 54.8197C0.751852 59.1335 -0.387444 64.1788 0.116561 69.1961C0.620566 74.2134 2.7406 78.9313 6.15758 82.6396L41.005 120.49L75.8713 82.6396C79.285 78.9307 81.4029 74.2142 81.9068 69.1988C82.4107 64.1834 81.2735 59.1398 78.6659 54.826L61.135 29.4537Z" fill="#17181B"/>
<path d="M67.8266 82.5133L40.4925 112.194L13.1583 82.5133H9.72656L40.4925 115.916L71.2583 82.5133H67.8266Z" fill="white"/>
<path d="M60.2478 82.5133L40.4648 103.993L20.6817 82.5133H17.25L40.4648 107.715L63.6732 82.5133H60.2478Z" fill="white"/>
<path d="M52.105 82.5133L40.4598 95.1616L28.8083 82.5133H25.3828L40.4598 98.8835L55.5368 82.5133H52.105Z" fill="white"/>
</svg>
