<svg width="206" height="42" viewBox="0 0 206 42" fill="none" xmlns="http://www.w3.org/2000/svg">
<g filter="url(#filter0_d_938_3425)">
<path d="M19.9598 34.96C16.5998 34.96 13.7358 34.24 11.3678 32.8C8.99975 31.36 7.19175 29.408 5.94375 26.944C4.72775 24.48 4.11975 21.712 4.11975 18.64C4.11975 16.208 4.50375 13.952 5.27175 11.872C6.07175 9.76 7.19175 7.92 8.63175 6.352C10.0718 4.784 11.7518 3.568 13.6718 2.704C15.5918 1.808 17.6878 1.36 19.9598 1.36C22.9678 1.36 25.3838 1.76 27.2078 2.56C29.0638 3.328 30.4398 4.224 31.3358 5.248C31.9758 6.08 32.3438 7.152 32.4398 8.464C32.5358 9.776 32.5838 11.136 32.5838 12.544H31.1438C30.5358 9.632 29.4158 7.408 27.7838 5.872C26.1838 4.304 24.0558 3.52 21.3998 3.52C19.4478 3.52 17.6718 3.968 16.0718 4.864C14.4718 5.76 13.1918 7.312 12.2318 9.52C11.3038 11.696 10.8398 14.736 10.8398 18.64C10.8398 20.464 11.0318 22.224 11.4158 23.92C11.7998 25.616 12.4078 27.136 13.2398 28.48C14.1038 29.824 15.1918 30.88 16.5038 31.648C17.8478 32.416 19.4798 32.8 21.3998 32.8C23.6078 32.8 25.6558 32.224 27.5438 31.072C29.4318 29.888 30.9518 28.176 32.1038 25.936L33.7838 27.232C32.2798 29.888 30.4398 31.84 28.2638 33.088C26.0878 34.336 23.3198 34.96 19.9598 34.96ZM37.8019 34V8.56C37.8019 7.12 37.5939 5.968 37.1779 5.104C36.7939 4.208 35.8819 3.76 34.4419 3.76H33.9619V2.32H39.7219C40.8419 2.32 41.7059 2.512 42.3139 2.896C42.9539 3.28 43.4019 3.92 43.6579 4.816C43.9139 5.712 44.0419 6.96 44.0419 8.56V12.784C44.5859 12.368 45.3219 11.968 46.2499 11.584C47.2099 11.168 48.2339 10.96 49.3219 10.96C50.4099 10.96 51.4819 11.088 52.5379 11.344C53.6259 11.6 54.6179 12.064 55.5139 12.736C56.4099 13.376 57.1139 14.272 57.6259 15.424C58.1699 16.544 58.4419 17.984 58.4419 19.744V34H52.2019V19.984C52.2019 18.32 51.9939 17.008 51.5779 16.048C51.1939 15.088 50.6659 14.4 49.9939 13.984C49.3539 13.568 48.6499 13.36 47.8819 13.36C47.0499 13.36 46.2819 13.568 45.5779 13.984C44.9059 14.4 44.3939 14.752 44.0419 15.04V34H37.8019ZM70.5833 34.48C69.2393 34.48 68.0553 34.32 67.0312 34C66.0393 33.68 65.1913 33.248 64.4873 32.704C63.8153 32.128 63.3033 31.44 62.9513 30.64C62.5993 29.84 62.4233 28.96 62.4233 28C62.4233 26.464 62.7753 25.168 63.4793 24.112C64.2153 23.024 65.5273 22.208 67.4153 21.664C69.3033 21.088 71.9593 20.8 75.3833 20.8H76.1033C76.1033 18.88 75.9273 17.36 75.5753 16.24C75.2233 15.12 74.6953 14.32 73.9913 13.84C73.3193 13.36 72.5033 13.12 71.5433 13.12C70.4553 13.12 69.4793 13.392 68.6153 13.936C67.7513 14.48 67.1273 15.648 66.7433 17.44H64.1033C64.1033 16.608 64.1513 15.76 64.2473 14.896C64.3753 14.032 64.7273 13.28 65.3033 12.64C65.8793 12 66.8233 11.568 68.1353 11.344C69.4793 11.088 70.9353 10.96 72.5033 10.96C74.0713 10.96 75.4633 11.168 76.6793 11.584C77.8953 12 78.9193 12.624 79.7513 13.456C80.6153 14.288 81.2553 15.344 81.6713 16.624C82.1193 17.872 82.3433 19.344 82.3433 21.04V34H78.2633L76.5833 31.84H76.3433C75.9273 32.512 75.2233 33.12 74.2313 33.664C73.2393 34.208 72.0233 34.48 70.5833 34.48ZM72.0233 32.08C73.0793 32.08 73.9593 31.728 74.6633 31.024C75.3673 30.32 75.8473 29.632 76.1033 28.96V22.96H75.3833C73.0793 22.96 71.4153 23.376 70.3913 24.208C69.3993 25.04 68.9033 26.304 68.9033 28C68.9033 29.344 69.1753 30.368 69.7193 31.072C70.2953 31.744 71.0633 32.08 72.0233 32.08ZM99.2438 34.48C97.8358 34.48 96.6678 34.208 95.7398 33.664C94.8118 33.088 94.1398 32.48 93.7238 31.84H93.4838L91.8038 34H87.7238V8.56C87.7238 7.12 87.5158 5.968 87.0998 5.104C86.7158 4.208 85.8037 3.76 84.3637 3.76H83.8837V2.32H89.6438C90.7638 2.32 91.6278 2.512 92.2358 2.896C92.8758 3.28 93.3238 3.92 93.5798 4.816C93.8358 5.712 93.9638 6.96 93.9638 8.56V12.4C94.5398 12.048 95.2438 11.728 96.0758 11.44C96.9398 11.12 97.9158 10.96 99.0038 10.96C101.34 10.96 103.26 11.488 104.764 12.544C106.3 13.568 107.436 14.976 108.172 16.768C108.94 18.528 109.324 20.512 109.324 22.72C109.324 24.896 108.94 26.88 108.172 28.672C107.436 30.464 106.316 31.888 104.812 32.944C103.34 33.968 101.484 34.48 99.2438 34.48ZM98.2838 32.32C99.4038 32.32 100.284 31.904 100.924 31.072C101.596 30.24 102.076 29.104 102.364 27.664C102.684 26.192 102.844 24.544 102.844 22.72C102.844 20.864 102.684 19.216 102.364 17.776C102.076 16.336 101.58 15.2 100.876 14.368C100.204 13.536 99.2598 13.12 98.0438 13.12C97.1158 13.12 96.2998 13.296 95.5958 13.648C94.9238 13.968 94.3798 14.272 93.9638 14.56V29.2C94.3158 30 94.8598 30.72 95.5958 31.36C96.3638 32 97.2598 32.32 98.2838 32.32ZM120.646 34.48C119.302 34.48 118.118 34.32 117.094 34C116.102 33.68 115.254 33.248 114.55 32.704C113.878 32.128 113.366 31.44 113.014 30.64C112.662 29.84 112.486 28.96 112.486 28C112.486 26.464 112.838 25.168 113.542 24.112C114.278 23.024 115.59 22.208 117.478 21.664C119.366 21.088 122.022 20.8 125.446 20.8H126.166C126.166 18.88 125.99 17.36 125.638 16.24C125.286 15.12 124.758 14.32 124.054 13.84C123.382 13.36 122.566 13.12 121.606 13.12C120.518 13.12 119.542 13.392 118.678 13.936C117.814 14.48 117.19 15.648 116.806 17.44H114.166C114.166 16.608 114.214 15.76 114.31 14.896C114.438 14.032 114.79 13.28 115.366 12.64C115.942 12 116.886 11.568 118.198 11.344C119.542 11.088 120.998 10.96 122.566 10.96C124.134 10.96 125.526 11.168 126.742 11.584C127.958 12 128.982 12.624 129.814 13.456C130.678 14.288 131.318 15.344 131.734 16.624C132.182 17.872 132.406 19.344 132.406 21.04V34H128.326L126.646 31.84H126.406C125.99 32.512 125.286 33.12 124.294 33.664C123.302 34.208 122.086 34.48 120.646 34.48ZM122.086 32.08C123.142 32.08 124.022 31.728 124.726 31.024C125.43 30.32 125.91 29.632 126.166 28.96V22.96H125.446C123.142 22.96 121.478 23.376 120.454 24.208C119.462 25.04 118.966 26.304 118.966 28C118.966 29.344 119.238 30.368 119.782 31.072C120.358 31.744 121.126 32.08 122.086 32.08ZM146.762 34.48C144.522 34.48 142.65 33.968 141.146 32.944C139.674 31.888 138.554 30.464 137.786 28.672C137.05 26.88 136.682 24.896 136.682 22.72C136.682 20.512 137.05 18.528 137.786 16.768C138.554 14.976 139.706 13.568 141.242 12.544C142.778 11.488 144.698 10.96 147.002 10.96C148.09 10.96 149.05 11.12 149.882 11.44C150.746 11.728 151.466 12.048 152.042 12.4V8.56C152.042 7.12 151.834 5.968 151.418 5.104C151.034 4.208 150.122 3.76 148.682 3.76H148.202V2.32H153.962C155.082 2.32 155.946 2.512 156.554 2.896C157.194 3.28 157.642 3.92 157.898 4.816C158.154 5.712 158.282 6.96 158.282 8.56V34H154.202L152.522 31.84H152.282C151.866 32.48 151.178 33.088 150.218 33.664C149.29 34.208 148.138 34.48 146.762 34.48ZM147.722 32.32C148.49 32.32 149.162 32.144 149.738 31.792C150.314 31.44 150.794 31.024 151.178 30.544C151.562 30.032 151.85 29.584 152.042 29.2V14.56C151.594 14.208 151.018 13.888 150.314 13.6C149.61 13.28 148.826 13.12 147.962 13.12C146.778 13.12 145.834 13.536 145.13 14.368C144.426 15.2 143.914 16.336 143.594 17.776C143.306 19.216 143.162 20.864 143.162 22.72C143.162 24.544 143.306 26.192 143.594 27.664C143.882 29.104 144.362 30.24 145.034 31.072C145.706 31.904 146.602 32.32 147.722 32.32ZM166.532 34.672C165.604 34.672 164.884 34.4 164.372 33.856C163.86 33.312 163.604 32.608 163.604 31.744C163.604 30.88 163.86 30.176 164.372 29.632C164.884 29.088 165.604 28.816 166.532 28.816C167.46 28.816 168.18 29.088 168.692 29.632C169.204 30.176 169.46 30.88 169.46 31.744C169.46 32.608 169.204 33.312 168.692 33.856C168.18 34.4 167.46 34.672 166.532 34.672ZM175.683 34V17.68C175.683 16.24 175.475 15.088 175.059 14.224C174.675 13.328 173.763 12.88 172.323 12.88H171.843V11.44H177.603C178.723 11.44 179.587 11.632 180.195 12.016C180.835 12.4 181.283 13.04 181.539 13.936C181.795 14.832 181.923 16.08 181.923 17.68V34H175.683ZM178.803 8.848C177.587 8.848 176.675 8.48 176.067 7.744C175.491 7.008 175.203 6.16 175.203 5.2C175.203 4.368 175.459 3.712 175.971 3.232C176.483 2.752 177.107 2.512 177.843 2.512C179.059 2.512 179.955 2.88 180.531 3.616C181.139 4.352 181.443 5.2 181.443 6.16C181.443 6.992 181.187 7.648 180.675 8.128C180.163 8.608 179.539 8.848 178.803 8.848ZM195.536 34.48C193.36 34.48 191.648 33.888 190.4 32.704C189.184 31.52 188.576 29.776 188.576 27.472V13.6H185.696V11.44H188.576V7.12L190.976 4.24H194.816V11.44H200.096V13.6H194.816V27.76C194.816 29.552 195.024 30.768 195.44 31.408C195.888 32.016 196.512 32.32 197.312 32.32C198.144 32.32 198.88 32.176 199.52 31.888C200.16 31.6 200.688 31.312 201.104 31.024L201.776 32.368C201.136 32.944 200.304 33.44 199.28 33.856C198.256 34.272 197.008 34.48 195.536 34.48Z" fill="white"/>
</g>
<defs>
<filter id="filter0_d_938_3425" x="0.117188" y="0.360016" width="205.656" height="41.6" filterUnits="userSpaceOnUse" color-interpolation-filters="sRGB">
<feFlood flood-opacity="0" result="BackgroundImageFix"/>
<feColorMatrix in="SourceAlpha" type="matrix" values="0 0 0 0 0 0 0 0 0 0 0 0 0 0 0 0 0 0 127 0" result="hardAlpha"/>
<feOffset dy="3"/>
<feGaussianBlur stdDeviation="2"/>
<feComposite in2="hardAlpha" operator="out"/>
<feColorMatrix type="matrix" values="0 0 0 0 0 0 0 0 0 0 0 0 0 0 0 0 0 0 0.22 0"/>
<feBlend mode="normal" in2="BackgroundImageFix" result="effect1_dropShadow_938_3425"/>
<feBlend mode="normal" in="SourceGraphic" in2="effect1_dropShadow_938_3425" result="shape"/>
</filter>
</defs>
</svg>
