<svg width="199" height="34" viewBox="0 0 199 34" fill="none" xmlns="http://www.w3.org/2000/svg">
<path d="M16.616 33.96C13.256 33.96 10.392 33.24 8.024 31.8C5.656 30.36 3.848 28.408 2.6 25.944C1.384 23.48 0.776 20.712 0.776 17.64C0.776 15.208 1.16 12.952 1.928 10.872C2.728 8.76 3.848 6.92 5.288 5.352C6.728 3.784 8.408 2.568 10.328 1.704C12.248 0.808 14.344 0.36 16.616 0.36C19.624 0.36 22.04 0.759999 23.864 1.56C25.72 2.328 27.096 3.224 27.992 4.248C28.632 5.08 29 6.152 29.096 7.464C29.192 8.776 29.24 10.136 29.24 11.544H27.8C27.192 8.632 26.072 6.408 24.44 4.872C22.84 3.304 20.712 2.52 18.056 2.52C16.104 2.52 14.328 2.968 12.728 3.864C11.128 4.76 9.848 6.312 8.888 8.52C7.96 10.696 7.496 13.736 7.496 17.64C7.496 19.464 7.688 21.224 8.072 22.92C8.456 24.616 9.064 26.136 9.896 27.48C10.76 28.824 11.848 29.88 13.16 30.648C14.504 31.416 16.136 31.8 18.056 31.8C20.264 31.8 22.312 31.224 24.2 30.072C26.088 28.888 27.608 27.176 28.76 24.936L30.44 26.232C28.936 28.888 27.096 30.84 24.92 32.088C22.744 33.336 19.976 33.96 16.616 33.96ZM34.4581 33V7.56C34.4581 6.12 34.2501 4.968 33.8341 4.104C33.4501 3.208 32.5381 2.76 31.0981 2.76H30.6181V1.32H36.3781C37.4981 1.32 38.3621 1.512 38.9701 1.896C39.6101 2.28 40.0581 2.92 40.3141 3.816C40.5701 4.712 40.6981 5.96 40.6981 7.56V11.784C41.2421 11.368 41.9781 10.968 42.9061 10.584C43.8661 10.168 44.8901 9.96 45.9781 9.96C47.0661 9.96 48.1381 10.088 49.1941 10.344C50.2821 10.6 51.2741 11.064 52.1701 11.736C53.0661 12.376 53.7701 13.272 54.2821 14.424C54.8261 15.544 55.0981 16.984 55.0981 18.744V33H48.8581V18.984C48.8581 17.32 48.6501 16.008 48.2341 15.048C47.8501 14.088 47.3221 13.4 46.6501 12.984C46.0101 12.568 45.3061 12.36 44.5381 12.36C43.7061 12.36 42.9381 12.568 42.2341 12.984C41.5621 13.4 41.0501 13.752 40.6981 14.04V33H34.4581ZM67.2395 33.48C65.8955 33.48 64.7115 33.32 63.6875 33C62.6955 32.68 61.8475 32.248 61.1435 31.704C60.4715 31.128 59.9595 30.44 59.6075 29.64C59.2555 28.84 59.0795 27.96 59.0795 27C59.0795 25.464 59.4315 24.168 60.1355 23.112C60.8715 22.024 62.1835 21.208 64.0715 20.664C65.9595 20.088 68.6155 19.8 72.0395 19.8H72.7595C72.7595 17.88 72.5835 16.36 72.2315 15.24C71.8795 14.12 71.3515 13.32 70.6475 12.84C69.9755 12.36 69.1595 12.12 68.1995 12.12C67.1115 12.12 66.1355 12.392 65.2715 12.936C64.4075 13.48 63.7835 14.648 63.3995 16.44H60.7595C60.7595 15.608 60.8075 14.76 60.9035 13.896C61.0315 13.032 61.3835 12.28 61.9595 11.64C62.5355 11 63.4795 10.568 64.7915 10.344C66.1355 10.088 67.5915 9.96 69.1595 9.96C70.7275 9.96 72.1195 10.168 73.3355 10.584C74.5515 11 75.5755 11.624 76.4075 12.456C77.2715 13.288 77.9115 14.344 78.3275 15.624C78.7755 16.872 78.9995 18.344 78.9995 20.04V33H74.9195L73.2395 30.84H72.9995C72.5835 31.512 71.8795 32.12 70.8875 32.664C69.8955 33.208 68.6795 33.48 67.2395 33.48ZM68.6795 31.08C69.7355 31.08 70.6155 30.728 71.3195 30.024C72.0235 29.32 72.5035 28.632 72.7595 27.96V21.96H72.0395C69.7355 21.96 68.0715 22.376 67.0475 23.208C66.0555 24.04 65.5595 25.304 65.5595 27C65.5595 28.344 65.8315 29.368 66.3755 30.072C66.9515 30.744 67.7195 31.08 68.6795 31.08ZM95.9 33.48C94.492 33.48 93.324 33.208 92.396 32.664C91.468 32.088 90.796 31.48 90.38 30.84H90.14L88.46 33H84.38V7.56C84.38 6.12 84.172 4.968 83.756 4.104C83.372 3.208 82.46 2.76 81.02 2.76H80.54V1.32H86.3C87.42 1.32 88.284 1.512 88.892 1.896C89.532 2.28 89.98 2.92 90.236 3.816C90.492 4.712 90.62 5.96 90.62 7.56V11.4C91.196 11.048 91.9 10.728 92.732 10.44C93.596 10.12 94.572 9.96 95.66 9.96C97.996 9.96 99.916 10.488 101.42 11.544C102.956 12.568 104.092 13.976 104.828 15.768C105.596 17.528 105.98 19.512 105.98 21.72C105.98 23.896 105.596 25.88 104.828 27.672C104.092 29.464 102.972 30.888 101.468 31.944C99.996 32.968 98.14 33.48 95.9 33.48ZM94.94 31.32C96.06 31.32 96.94 30.904 97.58 30.072C98.252 29.24 98.732 28.104 99.02 26.664C99.34 25.192 99.5 23.544 99.5 21.72C99.5 19.864 99.34 18.216 99.02 16.776C98.732 15.336 98.236 14.2 97.532 13.368C96.86 12.536 95.916 12.12 94.7 12.12C93.772 12.12 92.956 12.296 92.252 12.648C91.58 12.968 91.036 13.272 90.62 13.56V28.2C90.972 29 91.516 29.72 92.252 30.36C93.02 31 93.916 31.32 94.94 31.32ZM117.302 33.48C115.958 33.48 114.774 33.32 113.75 33C112.758 32.68 111.91 32.248 111.206 31.704C110.534 31.128 110.022 30.44 109.67 29.64C109.318 28.84 109.142 27.96 109.142 27C109.142 25.464 109.494 24.168 110.198 23.112C110.934 22.024 112.246 21.208 114.134 20.664C116.022 20.088 118.678 19.8 122.102 19.8H122.822C122.822 17.88 122.646 16.36 122.294 15.24C121.942 14.12 121.414 13.32 120.71 12.84C120.038 12.36 119.222 12.12 118.262 12.12C117.174 12.12 116.198 12.392 115.334 12.936C114.47 13.48 113.846 14.648 113.462 16.44H110.822C110.822 15.608 110.87 14.76 110.966 13.896C111.094 13.032 111.446 12.28 112.022 11.64C112.598 11 113.542 10.568 114.854 10.344C116.198 10.088 117.654 9.96 119.222 9.96C120.79 9.96 122.182 10.168 123.398 10.584C124.614 11 125.638 11.624 126.47 12.456C127.334 13.288 127.974 14.344 128.39 15.624C128.838 16.872 129.062 18.344 129.062 20.04V33H124.982L123.302 30.84H123.062C122.646 31.512 121.942 32.12 120.95 32.664C119.958 33.208 118.742 33.48 117.302 33.48ZM118.742 31.08C119.798 31.08 120.678 30.728 121.382 30.024C122.086 29.32 122.566 28.632 122.822 27.96V21.96H122.102C119.798 21.96 118.134 22.376 117.11 23.208C116.118 24.04 115.622 25.304 115.622 27C115.622 28.344 115.894 29.368 116.438 30.072C117.014 30.744 117.782 31.08 118.742 31.08ZM143.419 33.48C141.179 33.48 139.307 32.968 137.803 31.944C136.331 30.888 135.211 29.464 134.443 27.672C133.707 25.88 133.339 23.896 133.339 21.72C133.339 19.512 133.707 17.528 134.443 15.768C135.211 13.976 136.363 12.568 137.898 11.544C139.435 10.488 141.355 9.96 143.659 9.96C144.747 9.96 145.707 10.12 146.539 10.44C147.403 10.728 148.123 11.048 148.699 11.4V7.56C148.699 6.12 148.491 4.968 148.075 4.104C147.691 3.208 146.779 2.76 145.339 2.76H144.859V1.32H150.619C151.739 1.32 152.603 1.512 153.211 1.896C153.851 2.28 154.299 2.92 154.555 3.816C154.811 4.712 154.939 5.96 154.939 7.56V33H150.859L149.179 30.84H148.939C148.523 31.48 147.835 32.088 146.875 32.664C145.947 33.208 144.795 33.48 143.419 33.48ZM144.379 31.32C145.147 31.32 145.819 31.144 146.395 30.792C146.971 30.44 147.451 30.024 147.835 29.544C148.219 29.032 148.507 28.584 148.699 28.2V13.56C148.251 13.208 147.675 12.888 146.971 12.6C146.267 12.28 145.483 12.12 144.619 12.12C143.435 12.12 142.491 12.536 141.787 13.368C141.083 14.2 140.571 15.336 140.251 16.776C139.963 18.216 139.819 19.864 139.819 21.72C139.819 23.544 139.963 25.192 140.251 26.664C140.539 28.104 141.019 29.24 141.691 30.072C142.363 30.904 143.259 31.32 144.379 31.32ZM163.189 33.672C162.261 33.672 161.541 33.4 161.029 32.856C160.517 32.312 160.261 31.608 160.261 30.744C160.261 29.88 160.517 29.176 161.029 28.632C161.541 28.088 162.261 27.816 163.189 27.816C164.117 27.816 164.837 28.088 165.349 28.632C165.861 29.176 166.117 29.88 166.117 30.744C166.117 31.608 165.861 32.312 165.349 32.856C164.837 33.4 164.117 33.672 163.189 33.672ZM172.339 33V16.68C172.339 15.24 172.131 14.088 171.715 13.224C171.331 12.328 170.419 11.88 168.979 11.88H168.499V10.44H174.259C175.379 10.44 176.243 10.632 176.851 11.016C177.491 11.4 177.939 12.04 178.195 12.936C178.451 13.832 178.579 15.08 178.579 16.68V33H172.339ZM175.459 7.848C174.243 7.848 173.331 7.48 172.723 6.744C172.147 6.008 171.859 5.16 171.859 4.2C171.859 3.368 172.115 2.712 172.627 2.232C173.139 1.752 173.763 1.512 174.499 1.512C175.715 1.512 176.611 1.88 177.187 2.616C177.795 3.352 178.099 4.2 178.099 5.16C178.099 5.992 177.843 6.648 177.331 7.128C176.819 7.608 176.195 7.848 175.459 7.848ZM192.192 33.48C190.016 33.48 188.304 32.888 187.056 31.704C185.84 30.52 185.232 28.776 185.232 26.472V12.6H182.352V10.44H185.232V6.12L187.632 3.24H191.472V10.44H196.752V12.6H191.472V26.76C191.472 28.552 191.68 29.768 192.096 30.408C192.544 31.016 193.168 31.32 193.968 31.32C194.8 31.32 195.536 31.176 196.176 30.888C196.816 30.6 197.344 30.312 197.76 30.024L198.432 31.368C197.792 31.944 196.96 32.44 195.936 32.856C194.912 33.272 193.664 33.48 192.192 33.48Z" fill="#17181B"/>
</svg>
