<svg width="25" height="25" viewBox="0 0 25 25" fill="none" xmlns="http://www.w3.org/2000/svg">
<mask id="mask0_984_417" style="mask-type:alpha" maskUnits="userSpaceOnUse" x="0" y="0" width="25" height="25">
<rect x="0.796875" y="0.799805" width="24" height="24" fill="blue"/>
</mask>
<g mask="url(#mask0_984_417)">
<path d="M15.7969 22.7998V20.7998H19.7969V10.7998H5.79688V14.7998H3.79688V6.7998C3.79688 6.2498 3.99271 5.77897 4.38438 5.3873C4.77604 4.99564 5.24688 4.7998 5.79688 4.7998H6.79688V2.7998H8.79688V4.7998H16.7969V2.7998H18.7969V4.7998H19.7969C20.3469 4.7998 20.8177 4.99564 21.2094 5.3873C21.601 5.77897 21.7969 6.2498 21.7969 6.7998V20.7998C21.7969 21.3498 21.601 21.8206 21.2094 22.2123C20.8177 22.604 20.3469 22.7998 19.7969 22.7998H15.7969ZM8.79688 24.7998L7.39687 23.3998L9.97188 20.7998H1.79688V18.7998H9.97188L7.39687 16.1998L8.79688 14.7998L13.7969 19.7998L8.79688 24.7998ZM5.79688 8.7998H19.7969V6.7998H5.79688V8.7998Z" fill="#25426E"/>
</g>
</svg>
