<svg width="25" height="25" viewBox="0 0 25 25" fill="none" xmlns="http://www.w3.org/2000/svg">
<mask id="mask0_938_3470" style="mask-type:alpha" maskUnits="userSpaceOnUse" x="0" y="0" width="25" height="25">
<rect x="0.796875" y="0.800049" width="24" height="24" fill="#D9D9D9"/>
</mask>
<g mask="url(#mask0_938_3470)">
<path d="M5.04688 19.1C4.41354 18.3667 3.90521 17.55 3.52188 16.65C3.13854 15.75 2.89688 14.8 2.79688 13.8H4.84687C4.94687 14.5334 5.13021 15.2292 5.39688 15.8875C5.66354 16.5459 6.01354 17.15 6.44688 17.7L5.04688 19.1ZM2.79688 11.8C2.93021 10.8 3.18021 9.85004 3.54688 8.95004C3.91354 8.05004 4.41354 7.23337 5.04688 6.50004L6.44688 7.90004C6.01354 8.45004 5.66354 9.0542 5.39688 9.71254C5.13021 10.3709 4.94687 11.0667 4.84687 11.8H2.79688ZM11.7469 22.75C10.7469 22.65 9.80104 22.4084 8.90938 22.025C8.01771 21.6417 7.19688 21.15 6.44688 20.55L7.84688 19.1C8.43021 19.5334 9.04271 19.8917 9.68438 20.175C10.326 20.4584 11.0135 20.65 11.7469 20.75V22.75ZM7.89687 6.50004L6.44688 5.05004C7.19688 4.45004 8.01771 3.95837 8.90938 3.57504C9.80104 3.1917 10.7635 2.95004 11.7969 2.85004V4.85004C11.0469 4.95004 10.3469 5.1417 9.69688 5.42504C9.04688 5.70837 8.44688 6.0667 7.89687 6.50004ZM13.7969 22.75V20.75C15.8135 20.4667 17.4844 19.575 18.8094 18.075C20.1344 16.575 20.7969 14.8167 20.7969 12.8C20.7969 10.7834 20.1344 9.02504 18.8094 7.52504C17.4844 6.02504 15.8135 5.13337 13.7969 4.85004V2.85004C16.3635 3.13337 18.5052 4.2167 20.2219 6.10004C21.9385 7.98337 22.7969 10.2167 22.7969 12.8C22.7969 15.3834 21.9385 17.6167 20.2219 19.5C18.5052 21.3834 16.3635 22.4667 13.7969 22.75Z" fill="#031B4D"/>
<path d="M12.7122 19.0231L18.1641 9.58002L8.02502 10.0216L12.7122 19.0231ZM12.7702 16.8229L9.72095 11.0007L16.2877 10.7304L12.7702 16.8229Z" fill="#031B4D"/>
<path d="M7.72779 16.1438L13.1797 6.70074L17.8668 15.7022L7.72779 16.1438ZM9.60415 14.9934L16.1709 14.7231L13.1216 8.90092L9.60415 14.9934Z" fill="#031B4D"/>
</g>
</svg>
