<svg width="24" height="22" viewBox="0 0 24 22" fill="none" xmlns="http://www.w3.org/2000/svg">
<path d="M23.0272 15.3826C23.0272 19.3286 20.5736 21.681 16.4581 21.681H15.1126C14.4907 21.681 13.9819 21.1931 13.9819 20.5969V14.3419C13.9819 14.0493 14.2307 13.7999 14.5359 13.7999L16.5259 13.7674C16.6842 13.7566 16.8199 13.6482 16.8538 13.4964L17.2495 11.4259C17.2834 11.2307 17.1251 11.0464 16.9103 11.0464L14.502 11.079C14.1854 11.079 13.9367 10.8405 13.9254 10.5478L13.8802 7.89187C13.8802 7.71842 14.0272 7.56666 14.2194 7.56666L16.9329 7.52329C17.1251 7.52329 17.2721 7.38237 17.2721 7.19809L17.2269 4.59635C17.2269 4.41206 17.0799 4.27115 16.8877 4.27115L13.8349 4.31452C11.9581 4.34704 10.4656 5.82134 10.4995 7.62085L10.556 10.602C10.5673 10.9055 10.3186 11.144 10.002 11.1548L8.64523 11.1765C8.45302 11.1765 8.30605 11.3175 8.30605 11.5017L8.33997 13.5614C8.33997 13.7457 8.48694 13.8867 8.67915 13.8867L10.0359 13.865C10.3525 13.865 10.6013 14.1035 10.6126 14.3962L10.7143 20.5752C10.7256 21.1823 10.2168 21.681 9.58368 21.681H6.98317C2.86758 21.681 0.414062 19.3286 0.414062 15.3718V6.29832C0.414062 2.35238 2.86758 0 6.98317 0H16.4581C20.5736 0 23.0272 2.35238 23.0272 6.29832V15.3826Z" fill="white"/>
</svg>
