<svg width="20" height="24" viewBox="0 0 20 24" fill="none" xmlns="http://www.w3.org/2000/svg">
<g filter="url(#filter0_d_938_3389)">
<path d="M10.0026 9.79169C10.4054 9.79169 10.7491 9.64933 11.0339 9.3646C11.3186 9.07988 11.4609 8.73613 11.4609 8.33335C11.4609 7.93058 11.3186 7.58683 11.0339 7.3021C10.7491 7.01738 10.4054 6.87502 10.0026 6.87502C9.59983 6.87502 9.25608 7.01738 8.97135 7.3021C8.68663 7.58683 8.54427 7.93058 8.54427 8.33335C8.54427 8.73613 8.68663 9.07988 8.97135 9.3646C9.25608 9.64933 9.59983 9.79169 10.0026 9.79169ZM10.0026 16.6875C11.8498 15.007 13.2144 13.4827 14.0964 12.1146C14.9783 10.7465 15.4193 9.54169 15.4193 8.50002C15.4193 6.86113 14.895 5.52085 13.8464 4.47919C12.7977 3.43752 11.5165 2.91669 10.0026 2.91669C8.48872 2.91669 7.20746 3.43752 6.15885 4.47919C5.11024 5.52085 4.58594 6.86113 4.58594 8.50002C4.58594 9.54169 5.03733 10.7465 5.9401 12.1146C6.84288 13.4827 8.19705 15.007 10.0026 16.6875ZM10.0026 18.3334C7.76649 16.4306 6.09635 14.6632 4.99219 13.0313C3.88802 11.3993 3.33594 9.88891 3.33594 8.50002C3.33594 6.41669 4.00608 4.75696 5.34635 3.52085C6.68663 2.28474 8.23872 1.66669 10.0026 1.66669C11.7665 1.66669 13.3186 2.28474 14.6589 3.52085C15.9991 4.75696 16.6693 6.41669 16.6693 8.50002C16.6693 9.88891 16.1172 11.3993 15.013 13.0313C13.9089 14.6632 12.2387 16.4306 10.0026 18.3334Z" fill="white"/>
</g>
<defs>
<filter id="filter0_d_938_3389" x="0.335938" y="0.666687" width="19.3359" height="22.6667" filterUnits="userSpaceOnUse" color-interpolation-filters="sRGB">
<feFlood flood-opacity="0" result="BackgroundImageFix"/>
<feColorMatrix in="SourceAlpha" type="matrix" values="0 0 0 0 0 0 0 0 0 0 0 0 0 0 0 0 0 0 127 0" result="hardAlpha"/>
<feOffset dy="2"/>
<feGaussianBlur stdDeviation="1.5"/>
<feComposite in2="hardAlpha" operator="out"/>
<feColorMatrix type="matrix" values="0 0 0 0 0 0 0 0 0 0 0 0 0 0 0 0 0 0 0.25 0"/>
<feBlend mode="normal" in2="BackgroundImageFix" result="effect1_dropShadow_938_3389"/>
<feBlend mode="normal" in="SourceGraphic" in2="effect1_dropShadow_938_3389" result="shape"/>
</filter>
</defs>
</svg>
