<svg width="33" height="19" viewBox="0 0 33 19" fill="none" xmlns="http://www.w3.org/2000/svg">
<path d="M30.9443 2.47554H1.23777C0.561123 2.47554 0 1.91442 0 1.23777C0 0.561123 0.561123 0 1.23777 0H30.9443C31.6209 0 32.1821 0.561123 32.1821 1.23777C32.1821 1.91442 31.6209 2.47554 30.9443 2.47554Z" fill="white"/>
<path d="M30.9443 10.7277H1.23777C0.561123 10.7277 0 10.1666 0 9.48997C0 8.81332 0.561123 8.2522 1.23777 8.2522H30.9443C31.6209 8.2522 32.1821 8.81332 32.1821 9.48997C32.1821 10.1666 31.6209 10.7277 30.9443 10.7277Z" fill="white"/>
<path d="M30.9443 18.979H1.23777C0.561123 18.979 0 18.4178 0 17.7412C0 17.0645 0.561123 16.5034 1.23777 16.5034H30.9443C31.6209 16.5034 32.1821 17.0645 32.1821 17.7412C32.1821 18.4178 31.6209 18.979 30.9443 18.979Z" fill="white"/>
</svg>
