<svg width="26" height="26" viewBox="0 0 26 26" fill="none" xmlns="http://www.w3.org/2000/svg">
<rect x="0.433333" y="0.433333" width="25.1333" height="25.1333" rx="12.5667" stroke="white" stroke-width="0.866667"/>
<mask id="mask0_1200_13" style="mask-type:alpha" maskUnits="userSpaceOnUse" x="4" y="4" width="19" height="18">
<rect width="17.3333" height="17.3333" transform="matrix(-1 0 0 1 22.3281 4)" fill="#D9D9D9"/>
</mask>
<g mask="url(#mask0_1200_13)">
<path d="M9.08022 17.7764V14.9416C9.08022 14.401 9.26706 13.9439 9.64074 13.5702C10.0144 13.1965 10.4715 13.0097 11.0122 13.0097H16.6258L14.6397 14.9958L15.8872 16.2432L20.0156 12.125L15.8872 8.00671L14.6397 9.25414L16.6258 11.2402H11.0122C9.98116 11.2402 9.10651 11.5994 8.38821 12.3177C7.66991 13.036 7.31076 13.9106 7.31076 14.9416V17.7764H9.08022Z" fill="white"/>
</g>
</svg>
