<svg width="27" height="27" viewBox="0 0 27 27" fill="none" xmlns="http://www.w3.org/2000/svg">
<rect x="1.23021" y="1.23338" width="25.1333" height="25.1333" rx="12.5667" stroke="#DCDCDC" stroke-width="0.866667"/>
<mask id="mask0_938_5209" style="mask-type:alpha" maskUnits="userSpaceOnUse" x="5" y="4" width="19" height="19">
<rect width="17.3333" height="17.3333" transform="matrix(-1 0 0 1 23.125 4.80005)" fill="#D9D9D9"/>
</mask>
<g mask="url(#mask0_938_5209)">
<path d="M9.8771 18.5765V15.7417C9.8771 15.2011 10.0639 14.744 10.4376 14.3703C10.8113 13.9966 11.2684 13.8098 11.809 13.8098H17.4227L15.4366 15.7959L16.684 17.0433L20.8125 12.925L16.684 8.80679L15.4366 10.0542L17.4227 12.0403H11.809C10.778 12.0403 9.90338 12.3995 9.18508 13.1178C8.46678 13.8361 8.10763 14.7107 8.10763 15.7417V18.5765H9.8771Z" fill="#1C1B1F"/>
</g>
</svg>
