<svg width="130" height="98" viewBox="0 0 130 98" fill="none" xmlns="http://www.w3.org/2000/svg">
<rect y="7.62939e-06" width="130" height="98" fill="white"/>
<g clip-path="url(#clip0_11_6)">
<g filter="url(#filter0_d_11_6)">
<path d="M90.1618 53.6025L89.6645 53.5506L90.1618 53.6025C90.4981 50.3749 89.7384 47.1329 88.003 44.3648L88.0021 44.3633L87.9878 44.3406L87.9802 44.3286L87.972 44.3171L87.9564 44.2953L87.9559 44.2946L77.369 29.5205L76.0272 27.6479L75.2539 26.5687L75.1232 27.8899L74.8964 30.1827C74.705 32.1181 74.5595 33.5318 73.6077 35.6035C72.6275 37.7371 70.7701 40.6057 67.0292 45.2841L67.3669 45.5541L67.0292 45.2841C64.1256 48.9155 63.051 52.3936 62.7187 54.9998L63.2147 55.063L62.7187 54.9998C62.6667 55.4075 62.6329 55.7931 62.6131 56.154C61.8288 55.4483 60.9648 54.5654 60.2068 53.5489C59.2117 52.2142 58.4482 50.7151 58.2278 49.1343C58.0129 47.5929 58.2985 45.8771 59.566 44.0182L59.5662 44.018C61.4819 41.2052 63.1958 38.8644 64.6844 36.8311C65.107 36.2539 65.5118 35.701 65.8975 35.1697L65.8976 35.1697C67.6224 32.7937 69.0175 30.7809 69.9042 28.9009L69.452 28.6876L69.9042 28.9009C70.8122 26.9759 71.2211 25.123 70.9235 23.0772C70.6326 21.0775 69.6852 19.0297 68.1513 16.6649L68.1508 16.6641L68.1393 16.6464L68.133 16.6368L68.1263 16.6275L68.114 16.6104L68.1137 16.6099L65.0584 12.3672L64.1328 11.0818L63.5994 10.3411L63.2624 11.1894L62.6776 12.6616L62.6776 12.6616C59.3187 21.1185 55.0297 27.1452 50.9394 31.9763L51.321 32.2993L50.9394 31.9763C49.3069 33.9045 47.7116 35.6361 46.2043 37.2722L46.2043 37.2722L46.1428 37.339C45.7752 37.738 45.4127 38.1316 45.0568 38.5205C43.2387 40.507 41.5667 42.3976 40.2443 44.3097L40.2334 44.3255L40.2272 44.3345L40.2214 44.3437L40.2111 44.36L40.2108 44.3605C38.4732 47.1287 37.7119 50.3721 38.0483 53.6009C38.3847 56.8293 39.7988 59.8574 42.0677 62.2319C42.0677 62.2319 42.0678 62.232 42.0678 62.232L63.1119 84.2718L63.7393 84.9288L64.1008 85.3075L64.4624 84.9289L65.0898 84.2721L86.1455 62.2321L86.1457 62.232C88.4125 59.8573 89.8255 56.8297 90.1618 53.6025Z" fill="url(#paint0_radial_11_6)" stroke="white"/>
<path d="M80.6338 60.5524L64.1268 77.8353L47.6198 60.5524H45.5473L64.1268 80.0026L82.7063 60.5524H80.6338Z" fill="#78CD50"/>
<path d="M76.0688 60.5524L64.1219 73.06L52.1749 60.5524H50.1025L64.1219 75.2273L78.1373 60.5524H76.0688Z" fill="white"/>
<path d="M71.1544 60.5524L64.1219 67.9174L57.0855 60.5524H55.0169L64.1219 70.0846L73.2268 60.5524H71.1544Z" fill="#D06153"/>
</g>
</g>
<defs>
<filter id="filter0_d_11_6" x="33.4706" y="6.30814" width="61.2691" height="84.7233" filterUnits="userSpaceOnUse" color-interpolation-filters="sRGB">
<feFlood flood-opacity="0" result="BackgroundImageFix"/>
<feColorMatrix in="SourceAlpha" type="matrix" values="0 0 0 0 0 0 0 0 0 0 0 0 0 0 0 0 0 0 127 0" result="hardAlpha"/>
<feOffset dy="1"/>
<feGaussianBlur stdDeviation="2"/>
<feComposite in2="hardAlpha" operator="out"/>
<feColorMatrix type="matrix" values="0 0 0 0 0 0 0 0 0 0 0 0 0 0 0 0 0 0 0.07 0"/>
<feBlend mode="normal" in2="BackgroundImageFix" result="effect1_dropShadow_11_6"/>
<feBlend mode="normal" in="SourceGraphic" in2="effect1_dropShadow_11_6" result="shape"/>
</filter>
<radialGradient id="paint0_radial_11_6" cx="0" cy="0" r="1" gradientUnits="userSpaceOnUse" gradientTransform="translate(64.0581 183.204) rotate(-89.8622) scale(197.88 206.485)">
<stop offset="0.357834" stop-color="#0A2B14"/>
<stop offset="0.714246" stop-color="#2F7944"/>
<stop offset="0.920723" stop-color="#5EB762"/>
<stop offset="1" stop-color="#47965D"/>
</radialGradient>
<clipPath id="clip0_11_6">
<rect width="59" height="87.6571" fill="white" transform="translate(35 5)"/>
</clipPath>
</defs>
</svg>
