<svg width="30" height="30" viewBox="0 0 48 48" fill="none" xmlns="http://www.w3.org/2000/svg">
<path d="M24 5C18.9609 5 14.1282 7.00178 10.565 10.565C7.00178 14.1282 5 18.9609 5 24C5 29.0391 7.00178 33.8718 10.565 37.435C14.1282 40.9982 18.9609 43 24 43C29.0391 43 33.8718 40.9982 37.435 37.435C40.9982 33.8718 43 29.0391 43 24C43 18.9609 40.9982 14.1282 37.435 10.565C33.8718 7.00178 29.0391 5 24 5Z" fill="#012D70"/>
<path d="M26.5681 29.036H31.4851L32.2571 24.041H26.5671V21.311C26.5671 19.236 27.2451 17.396 29.1861 17.396H32.3051V13.037C31.7571 12.963 30.5981 12.801 28.4081 12.801C23.8351 12.801 21.1541 15.216 21.1541 20.718V24.041H16.4531V29.036H21.1541V42.765C22.0851 42.905 23.0281 43 23.9961 43C24.8711 43 25.7251 42.92 26.5681 42.806V29.036Z" fill="white"/>
</svg>
