<svg width="25" height="25" viewBox="0 0 25 25" fill="none" xmlns="http://www.w3.org/2000/svg">
<mask id="mask0_938_4840" style="mask-type:alpha" maskUnits="userSpaceOnUse" x="0" y="0" width="25" height="25">
<rect x="0.796875" y="0.800049" width="24" height="24" fill="#D9D9D9"/>
</mask>
<g mask="url(#mask0_938_4840)">
<path d="M12.7969 22.8C11.4302 22.8 10.1385 22.5375 8.92188 22.0125C7.70521 21.4875 6.64271 20.7709 5.73438 19.8625C4.82604 18.9542 4.10938 17.8917 3.58438 16.675C3.05937 15.4584 2.79688 14.1667 2.79688 12.8C2.79688 11.4167 3.05937 10.1209 3.58438 8.91255C4.10938 7.70422 4.82604 6.64588 5.73438 5.73755C6.64271 4.82922 7.70521 4.11255 8.92188 3.58755C10.1385 3.06255 11.4302 2.80005 12.7969 2.80005C14.1802 2.80005 15.476 3.06255 16.6844 3.58755C17.8927 4.11255 18.951 4.82922 19.8594 5.73755C20.7677 6.64588 21.4844 7.70422 22.0094 8.91255C22.5344 10.1209 22.7969 11.4167 22.7969 12.8C22.7969 14.1667 22.5344 15.4584 22.0094 16.675C21.4844 17.8917 20.7677 18.9542 19.8594 19.8625C18.951 20.7709 17.8927 21.4875 16.6844 22.0125C15.476 22.5375 14.1802 22.8 12.7969 22.8ZM12.7969 20.75C13.2302 20.15 13.6052 19.525 13.9219 18.875C14.2385 18.225 14.4969 17.5334 14.6969 16.8H10.8969C11.0969 17.5334 11.3552 18.225 11.6719 18.875C11.9885 19.525 12.3635 20.15 12.7969 20.75ZM10.1969 20.35C9.89687 19.8001 9.63438 19.2292 9.40938 18.6375C9.18438 18.0459 8.99688 17.4334 8.84688 16.8H5.89688C6.38021 17.6334 6.98438 18.3584 7.70937 18.975C8.43437 19.5917 9.26354 20.0501 10.1969 20.35ZM15.3969 20.35C16.3302 20.0501 17.1594 19.5917 17.8844 18.975C18.6094 18.3584 19.2135 17.6334 19.6969 16.8H16.7469C16.5969 17.4334 16.4094 18.0459 16.1844 18.6375C15.9594 19.2292 15.6969 19.8001 15.3969 20.35ZM5.04688 14.8H8.44688C8.39687 14.4667 8.35938 14.1375 8.33437 13.8125C8.30937 13.4875 8.29688 13.15 8.29688 12.8C8.29688 12.45 8.30937 12.1125 8.33437 11.7875C8.35938 11.4625 8.39687 11.1334 8.44688 10.8H5.04688C4.96354 11.1334 4.90104 11.4625 4.85938 11.7875C4.81771 12.1125 4.79688 12.45 4.79688 12.8C4.79688 13.15 4.81771 13.4875 4.85938 13.8125C4.90104 14.1375 4.96354 14.4667 5.04688 14.8ZM10.4469 14.8H15.1469C15.1969 14.4667 15.2344 14.1375 15.2594 13.8125C15.2844 13.4875 15.2969 13.15 15.2969 12.8C15.2969 12.45 15.2844 12.1125 15.2594 11.7875C15.2344 11.4625 15.1969 11.1334 15.1469 10.8H10.4469C10.3969 11.1334 10.3594 11.4625 10.3344 11.7875C10.3094 12.1125 10.2969 12.45 10.2969 12.8C10.2969 13.15 10.3094 13.4875 10.3344 13.8125C10.3594 14.1375 10.3969 14.4667 10.4469 14.8ZM17.1469 14.8H20.5469C20.6302 14.4667 20.6927 14.1375 20.7344 13.8125C20.776 13.4875 20.7969 13.15 20.7969 12.8C20.7969 12.45 20.776 12.1125 20.7344 11.7875C20.6927 11.4625 20.6302 11.1334 20.5469 10.8H17.1469C17.1969 11.1334 17.2344 11.4625 17.2594 11.7875C17.2844 12.1125 17.2969 12.45 17.2969 12.8C17.2969 13.15 17.2844 13.4875 17.2594 13.8125C17.2344 14.1375 17.1969 14.4667 17.1469 14.8ZM16.7469 8.80005H19.6969C19.2135 7.96672 18.6094 7.24172 17.8844 6.62505C17.1594 6.00838 16.3302 5.55005 15.3969 5.25005C15.6969 5.80005 15.9594 6.37088 16.1844 6.96255C16.4094 7.55422 16.5969 8.16672 16.7469 8.80005ZM10.8969 8.80005H14.6969C14.4969 8.06672 14.2385 7.37505 13.9219 6.72505C13.6052 6.07505 13.2302 5.45005 12.7969 4.85005C12.3635 5.45005 11.9885 6.07505 11.6719 6.72505C11.3552 7.37505 11.0969 8.06672 10.8969 8.80005ZM5.89688 8.80005H8.84688C8.99688 8.16672 9.18438 7.55422 9.40938 6.96255C9.63438 6.37088 9.89687 5.80005 10.1969 5.25005C9.26354 5.55005 8.43437 6.00838 7.70937 6.62505C6.98438 7.24172 6.38021 7.96672 5.89688 8.80005Z" fill="#031B4D"/>
</g>
</svg>
